<svg xmlns="http://www.w3.org/2000/svg" xmlns:xlink="http://www.w3.org/1999/xlink" viewBox="0 0 90.36 90.36"><defs><style>.cls-1{fill:url(#radial-gradient);}.cls-2{fill:#fff;}</style><radialGradient id="radial-gradient" cx="81.92" cy="18.83" r="76.01" gradientUnits="userSpaceOnUse"><stop offset="0.1" stop-color="#26db8d"/><stop offset="0.26" stop-color="#23d29a"/><stop offset="0.56" stop-color="#1abbbb"/><stop offset="0.89" stop-color="#0e9de5"/></radialGradient></defs><title>Asset 39</title><g id="Layer_2" data-name="Layer 2"><g id="Layer_1-2" data-name="Layer 1"><path class="cls-1" d="M81.91,18.89h0L74.52,30.34A32.88,32.88,0,0,1,30.36,74.53L18.91,81.92a45.16,45.16,0,0,0,63-63Z"/><path class="cls-1" d="M45.18,67.81A22.7,22.7,0,0,0,67.49,49.24a52.31,52.31,0,0,0-10.91-1.16,51.7,51.7,0,0,0-30.22,9.71A22.66,22.66,0,0,0,45.18,67.81Z"/><path class="cls-2" d="M56.36,44a54.55,54.55,0,0,1,11.51,1.24h0a22.69,22.69,0,0,0-45.38,0,21.61,21.61,0,0,0,.21,3h0a49.87,49.87,0,0,0-8.51,7.89A32.87,32.87,0,0,1,60,15.81l11.45-7.4A45.16,45.16,0,0,0,8.83,72a54.53,54.53,0,0,1,7.72-10.65,65.71,65.71,0,0,1,7.87-7A54.08,54.08,0,0,1,56.36,44Z"/></g></g></svg>